<mxfile host="65bd71144e">
    <diagram id="RYEuryn57sEWnDJ4VhMZ" name="Page-1">
        <mxGraphModel dx="1716" dy="672" grid="1" gridSize="10" guides="1" tooltips="1" connect="1" arrows="1" fold="1" page="1" pageScale="1" pageWidth="1169" pageHeight="1654" math="0" shadow="0">
            <root>
                <mxCell id="0"/>
                <mxCell id="1" parent="0"/>
                <mxCell id="8" style="edgeStyle=none;html=1;" parent="1" source="7" edge="1">
                    <mxGeometry relative="1" as="geometry">
                        <mxPoint x="574.15" y="80" as="targetPoint"/>
                    </mxGeometry>
                </mxCell>
                <mxCell id="7" value="buy credits" style="strokeWidth=2;html=1;shape=mxgraph.flowchart.start_1;whiteSpace=wrap;" parent="1" vertex="1">
                    <mxGeometry x="281.15" y="50" width="100" height="60" as="geometry"/>
                </mxCell>
                <mxCell id="11" style="edgeStyle=none;html=1;fontSize=14;exitX=0;exitY=0.75;exitDx=0;exitDy=0;" parent="1" source="9" edge="1">
                    <mxGeometry relative="1" as="geometry">
                        <mxPoint x="380" y="125" as="targetPoint"/>
                    </mxGeometry>
                </mxCell>
                <mxCell id="9" value="&lt;font style=&quot;font-size: 14px;&quot;&gt;create payment_id&amp;nbsp;&lt;/font&gt;" style="rounded=1;whiteSpace=wrap;html=1;absoluteArcSize=1;arcSize=14;strokeWidth=2;fontSize=23;" parent="1" vertex="1">
                    <mxGeometry x="576.15" y="50" width="100" height="100" as="geometry"/>
                </mxCell>
                <mxCell id="13" value="&lt;b&gt;execute&lt;/b&gt;(id=&lt;font color=&quot;#ff0000&quot;&gt;payment_id&lt;/font&gt;)" style="text;html=1;align=center;verticalAlign=middle;resizable=0;points=[];autosize=1;strokeColor=none;fillColor=none;fontSize=14;" parent="1" vertex="1">
                    <mxGeometry x="376.15" y="200" width="180" height="30" as="geometry"/>
                </mxCell>
                <mxCell id="15" style="edgeStyle=none;html=1;" parent="1" edge="1">
                    <mxGeometry relative="1" as="geometry">
                        <mxPoint x="581.15" y="230" as="targetPoint"/>
                        <mxPoint x="381.15" y="230" as="sourcePoint"/>
                    </mxGeometry>
                </mxCell>
                <mxCell id="72" value="" style="edgeStyle=none;html=1;strokeColor=#FFFFFF;fontSize=19;" parent="1" source="18" edge="1">
                    <mxGeometry relative="1" as="geometry">
                        <mxPoint x="580" y="280" as="targetPoint"/>
                    </mxGeometry>
                </mxCell>
                <mxCell id="18" value="" style="shape=image;verticalLabelPosition=bottom;labelBackgroundColor=default;verticalAlign=top;aspect=fixed;imageAspect=0;image=data:image/png,iVBORw0KGgoAAAANSUhEUgAAAeoAAAENCAIAAABPTrFXAAAACXBIWXMAAA7EAAAOxAGVKw4bAAAgAElEQVR4nO3dfVwTV74/8C9kYggSIsEGNJGApIgKAkZArUHrA5SfKPhY7Fb7s6u2vbbae1dtt6vXa9u7e9vaJ1e7u9XWXdzbbhUVBVcF6dakokDDs9VqVGIDYgoUBAmBCdw/ommCCJFacfTzfu0fM2dOznwn3deH8eQk49bZ2UkAAMA17v1dAAAA9AXiGwCAkxDfAACcxNzaVF5ertPpjEaj1Wq99wUB3AM8Hk8ul6tUqvDw8P6uBaCPusZ3dna2wWBQq9VKpZJhugl3gAcAy7J6vV6r1V65ciU+Pr6/ywHoCzfHlSfl5eWnTp1aunQpghseBizL7ty5c/z48bgHBy5ymvvW6XRqtRrZDQ8JhmHUarVOp+vvQgD6wim+jUajUqnsr1IA7j2lUmk0Gvu7CoC+cIpvq9WKW294qDAMg4/ogaOwcBAAgJMQ3wAAnIT4BgDgJMQ3AAAnIb4BADgJ8Q0AwEmIbwAATkJ8AwBwEuIbAICTEN8AAJyE+AYA4CTENwAAJyG+AQA4CfENAMBJd/TzsOaqwtzc/IoLNdfMLAnFfopR0dOmT1QM/Jk1VB1978MCxYoN87r81Dhb8dl/ptU/8eqLcRLXB+vQp//3x5Wxa9bES7seaszb9ocs0VOvLxmDH8UFAM5zOcg66ov/8fHnZWZZ2MSESTIJ015vKM8ryNhWoV/04pIo8S9ZIwAA3MLV+K4/mb6nxKxMXvnsY9IbrwmLionWfLotK+NQRehTYUIXB+rg1IQNt6oFgIeJi/FdVZivZ+UJ8+3ZbXuxNG7Rc4p2X4WQiIitys84pD1TWdvEugsliqiE5KQof4aImrTb3vjKb9Es0uwvMkc+9+ochbkyd8++vLMmM98nMCphYk9FuFNTWcbnh4oNje3Cwcq4OYumBdvOZio+nJVbojddZ4UimSJyWkpimKRr1LJVJ/ekf1ledZ0vGRoeN93H8ZjZmHfokKbcUG92F0mVUU8kJYUNJiK2+K+v7XFPWfJI8R5tlSLVeaalQ5/+359ejXtucvPRI99Umsx8SVB0UmpSmO0fH41nj2YeLT5/td7CMiJZaOzMOdOVIiKqObp5S3no00+QNqvQUN8ulI2duXim9GxGem55TRPfJzTuyUXTAm1//lhTUVbWl+X62iYSSgLHTE35fzFSgWv/iQDgIeNafDcZDCaSTQ+/dQ5aNFRh22AvZH26v9xv6qKVkVJ+m6n88Oef/52R/keSzJ2I4ZOlUqMLnPD0c7LBMrpesedvRy8MTVjyVJS0o7rw8JGCxtuf+seCrKLwyb9aKe2oysvYczQ9V7k2SeFuPpv+l8+/k0ybszJ6mNBsyMvYn/Yxu2JNstLxetgLWbsOlIsee2r1pKH82oojh4+bOkhkO1abt2t7xtWghEWroqQd1YWZe9I+YVe8nKIUEJ9h2Ko8DROz4PkU6SNd3h8+486a8rLKp6Ss3CDj1xd/9pfP9xxWhqaGMlSf94+03Kax85cuUnpR0yXNnv279kjWPDtWRMTwO5qKj5UnLFy9abC5ePe2z/d9XBkUmvTMbxd5XtX8dVtWRl74y9OkRE1ln/1l9wXJ5AUrxw/l11YcSU//i9lzjev/sgGAh4lrUwNNTdeIRJKePkFkFAkvv7JmcXyoTCqRykMnPxYqrL1wtp7I9ieizSx7LCXmUYXMhzF/V3DWLIubNS3UXyIZGpYwN0Ziuf24bZKJCxLCAqTSwKiEx5T0Y3XVdaKmYk1Zk2zKooQxMomPRBaZlBIjrS/KO+s0DqvXFdeLYhJmhsl8JNJH4xZMkrXfPGY4qdG7h8158mYNqQmKxgLNafONt6RJEpkcFxogk3QXnO2Do5MmyITuxAyOigkWmqsN9UREkpin1rz6QkpMoFQyWKqInhrlbzacq7r5HpslEQkx/kJiJOFjlMI2szQ6KdSHIYEsKkxGpioTS0T1xZoKc1DCksSbBSeGsWXHC3906T8RADxs7mQNRs8PdGXYKt3+3MILVY1mtoOIiNylLHvzqLvfUNmNc9VfqWcFMtngm4fECpmY6m83rK/CvrKFLxQyVM+yRLXVVzsk4Yqf/pz4KaSM1lRVR2H+9rZrJpOZpENlN/9CCeUKP3c9ERE1VVXXk3+cwp7OIoVyMFtgqKKxgUREgxWBt19O4+3vJ7q5LRQKqb293TZF3qTXHNKUG0xNbTffEgnL3niLhZJHblTLCPiMu8jv5iyUUCikDrbFSkTVldXkN1X50+BBSillVX7PxvlgqQwAdOVaLoh9vInqa68SyW7Xpf54WtqxpvDkZ5eMVYgERGfTN/610vFEwgE3tsxtZmL4jLvDIf7tT+3udMy2w5pbzA4DEhHDePKJNbc59mXNLDHe/J9eL+DfvFqz2UJkzHjj1YyfuncQM7jpxp8bht/D+8K4d3fQcjZjZ3q5z7RFq+KUUiFD9Zqt/3PEsXKnf+c4Xv6NsxPb0tpBVcc2rzvm1K5oMhOJCADAmWvxPTAw2J+Oni6uSpDJnHOnviy32D1qchj/7GkDG5ySMuHGHS3bcq29u5GISDiAT2w7+9OiDrO5h8mTbosWegqdw5pta2l3DnQiRsgQa2lvt1+k2XwzCIVCAVFwwuo54U5/HASSvt/lXq440ySJ+lVCqG25eYf5WusdjiDw9GBINmHFomhvx2ZGhOwGgG64uCxOGvNYqNCUl37UwDq0stWa9L1H88qq26mdZYkReN9Mw6YCnVNPRxKplLGYqmpv7tcaDE13WLV/gJ97fZXhpxmXKkM1K5QpnL6p4y0dLCRTdVXHzZouGepvbIsUcgnVN7ES6U0SobtQIv4ZcxTt7SwxQo8be+zlwopaoo4eX9IFMzTQn+obW38qarCQ4Yu6nX8HAHB1VbMoesGCsd5V//rL5k8yNIUVFWUFmsxPP/goq9InblFymJAkQ4eJ2Et5xyvrm2oNBXvTKsShUmq6aqg335LiwtAopaBKk5l7ttpkulyctb/42p0mlCg8LlJi+Cr96Lempsb6qpKMjPxr0pg4p3UnxCgjw0VNBYcOVVSZTFUVuXsK64V0I1JlsXHK1oI96Xl6U1NTbVXFsbQP3tuWVXm7vzgukClk7qbyExWmxqaqb3PTsszKYIatraxqcn1MSVRcGFOW9dnxs6Yfm+qrz2o+27Z5a0aFue9FAcADzPX7TVFY6urVwbm5+RW5+/PMHYzQRxYat2TJ5DDbwmRl/KJptemaP/9P7kCpMjZl0VTv4h/1Rw5syxCsSek6UtSCRaY9WZq0Lbl8H1lUQsrErz/WWO8oOoWhc1csOZxxZO8HuddZoVgWPOXZOdNlXS6GCZ25JLElQ/PZhydINDR8Wkoc/TnjxseqgycuXk6HDml2fZBh7mBE/qExT62YFsgQ9TXBxTEpyYbPsz/brONL5OFT5y8Ir+dXfpb36U7+ioWuvsmiMU89x2ZlfbXng8NNLCOSKsIXLE/CskEA6JZbZ2enfWfTpk0bN27sx2oA7j383x44Cl8JBwDgJMQ3AAAnIb4BADgJ8Q0AwEmIbwAATkJ8AwBwEuIbAICTEN8AAJyE+AYA4CTENwAAJyG+AQA4CfENAMBJiG8AAE5CfAMAcBLiGwCAkxDfAACc5BTfPB6PZX/GA8MAuIZlWR6P199VAPSFU3zL5XK9Xt9fpQDce3q9Xi6X93cVAH3hFN8qlUqr1eIGHB4SLMtqtVqVStXfhQD0hdOzLokoOzvbYDCo1WqlUskwrj/IGIBLWJbV6/VarVahUMTHx/d3OQB90TW+iai8vFyn0xmNRqvV2i81AfzSeDyeXC5XqVTh4eH9XQtAH3UT3wAAcP/DwkEAAE5CfAMAcBLiGwCAkxDfAACc1M3SQKw8AQC4r3S7VqprfGPdNwDA/cb+TYUrV67Yv6ngtHCwvLz81KlTS5cuRXADANxvWJbduXPn+PHjbffgTnPfOp1OrVYjuwEA7kMMw6jVap1OZ9t1im+j0ahUKvujKgAA6J1SqTQajbZtp/i2Wq249QYAuG8xDGNfVIKFgwAAnIT4BgDgJMQ3AAAnIb4BADgJ8Q0AwEmIbwAATkJ8AwBwEuIbAICTEN8AAJyE+AYA4CTENwAAJyG+AQA4qfcfqPqxoblvQ3t48IUegr69FgAAetZLfJtqG5qazX0eXTp4kMhL2Gu3zs7OoqKi/Pz8mpoaq9Xq4+MTHh6uVqs9PT37fGqbd999Nzg4OCUlpUu7VqvNzMycMGHCnDlzHNvfeeedyMjIGTNm/Mzz2vzXf/2XWq2eNm3aXRkNAMBRL/H9c7KbiJqaW1yJ7y+++KKoqCgqKuqxxx5jGMZoNObl5ZWVlT3//PMikejnFNADd3f3/Pz8CRMm+Pv7/0KnAAD45fT/3HdhYWFRUdG8efMWLVoUERExevTohISElStXNjY2Zmdnuz7OnT5YWSKRDBs27MCBA3dY772DR0UDQA9cejiD0GOAyOuneYz6H6+x1o67VYFWqw0ICIiNjXVslEqlL7zwglQqte0WFxcfP368traWYZjAwMBZs2b5+voS0ddff/3ll18uWLBgz549kZGRs2fPrqys3L9/v8lkkkgkTzzxhJub2+3Oa7Vak5OTt2zZUlFRERYW1uWo0WjcsmXLqlWr5HK5reWtt94aPXp0UlLSyZMns7Ozn3nmmb1799bV1Uml0tTU1Orq6uzs7Obm5qCgoNTU1IEDB9pe1dnZmZmZqdPp2tvbQ0JCFixYYJsRam5uzsrKOnv2bFtb25AhQxITE23PObpy5cr777//7LPPHjp0iGGY1atX3513GQAeOC7dffsM8hJ5Ce3/8xYNvFunN5vNNTU1o0aNuvWQTCbj8/lEdPny5c8//3z06NGrVq1atmxZe3t7WlqarQ/DMG1tbSdOnEhNTZ00aVJra+tf//pXT0/PVatWpaamnjx58tq1a7c7dUdHh1wuHzduXFZWFsuyrtfM4/EsFsvXX3+9YsWKV155xWKx/P3vf//uu+9Wr169evXq77//XqPR2DsXFBRYrdZly5YtXLjwwoUL+/bts536k08+MRgMTz/99Msvvzxs2LBPPvmkpqbGNjgRHTt2bMqUKQsXLnS9KgB42PTz5ElTUxMR+fj49NBn6NChr7766vTp06VSqVwunzRp0pUrV5qbm4nI3d29ra1t0qRJISEhEonkzJkzLS0tycnJQ4YMGTZs2Lx581paWnouIDEx8fr168ePH7+jslmWnTx5skgkEovFI0eONJlMs2bNEgqFjzzySHBwcHV1tb2nh4dHSkqKXC6PiIhQq9WnT59ub28/d+5cVVXVvHnzlEqlVCpNTk6WSCQnTpywXRERBQUFqVSqIUOG3FFVAPBQ6cuTLdvv5F61Z7abzc7Ozp77lJSUFBYWNjQ02KeDW1pavLy8bNvDhg2zbZhMJh6PZ/8o0tfX197ndkQi0dSpU3Nzc6Ojo729vV2v3D6xIxQKPT097ScSCoWNjY32bsOHD7dvy2Qyq9VaV1dnNBrd3d3th9zc3IKCggwGg72n/YoAAG7Hpfg2/dDguHsXJ769vb3d3Nxqa2t76FNQUJCdnT1v3rzw8HAPD4/z589v377dsYNQeGNxS2trq0DgtNLcw8Oj1xrUanV+fv4///nP1NRU1yu3Tezcut2F49rHAQMGEFFbW1tra2tHR8f69evthzo6Ohx72q8IAOB2XIrvu5jXXfD5/ICAgLKyshkzZnT5mLG8vJzH440aNaqiokKpVEZHR9vabfMt3RowYIDFYnFs6XXyhIgYhklKSkpLS5s4caJt7qJb7e3tvQ51q9bWVvu22Wy2Fenh4cEwzMsvv+zYs4dTAwDcyqXIaLjWXF1TV11TV1vXSES1dY223bY2todDLlYwadIkk8l07Ngxx8aampr09PQzZ84QkcVicbyn1ul0txtKKpVarVbbZ4C2QVyJbyIKCwtTKpUHDhyw30fb7n/t4dvU1NTDp6A9uHz5sn27urqaYRhfX9+AgACWZTs7O6U38fl8sVjch/EB4KHl0t13S4ulobGZiPh8xls00FR7Yy5lkNirh0MDXBs8IiLiwoULOTk5RqMxIiJiwIABly9fPnXqlJ+f38yZM4lIoVDk5+cbDAaRSPTVV18NHjz4/PnzRqPx1g88R44cKRAIMjIyZs6c2d7efvjw4V7nvu1mz579wQcfuLm5jRw5kogGDRrk5eWl0+kCAwNbW1sPHDjg+lCOGhoajh07FhUVVVtbe/LkyfDwcD6fr1QqZTLZP/7xj1mzZvn4+BgMhv3790+fPl2tVvfhFADwcHIpYYf6+w7197XvjhqhsG97CgW3O+S6uXPnDh8+PD8//+DBgyzL+vr6Tps2zfYNTCKaOnVqXV3d9u3bPTw8JkyYYNvdv3+/7WNPR56ens8888yBAwc++ugjHx+fxMRErVbr4pdf/P39Y2NjT548advl8XhPPvlkZmbmxo0bfXx8Zs6c2djY2NFxZ5NIVqt16tSp9fX1f/zjH9vb20NDQ21f33d3d//1r3+dlZWVlpbW1tYmkUiQ3QBwp9wcV31s2rRp48aNjoera+rMrW19Hl3kJZQOHtT36gAAwJk9qHuZ+xZ5eTK8Pn6kxvDcXfnBEwAA6INeJk9sX7O8N6UAAIDrsFgNAICTEN8AAJyE+AYA4CTENwAAJyG+AQA4CfENAMBJiG8AAE5CfAMAcBLiGwCAkxDfAACchPgGAOAkxDcAACchvgEAOMkpvnk8Hnv3niIPAAB3F8uy9ifVOMW3XC7X6/X9URIAAPROr9fL5XLbtlN8q1QqrVaLG3AAgPsQy7JarValUtl2nR6WRkTZ2dkGg0GtViuVStujJgEAoH+xLKvX67VarUKhiI+PtzV2jW8iKi8v1+l0RqPRxYf8AgDAL4rH48nlcpVKFR4ebm/sJr4BAOD+h4WDAACchPgGAOAkxDcAACchvgEAOKmbpYFYeQIAcF/pduVJ1/jGum8AgPuNfd33lStXul/3XV5efurUqaVLlyK4AQDuNyzL7ty5c/z48bZ7cKe5b51Op1arkd0AAPchhmHUarVOp7PtOsW30WhUKpX9URUAAPROqVQajUbbtlN8W61W3HoDANy3GIaxLyrBwkEAAE5CfAMAcBLiGwCAkxDfAACchPgGAOAkxDcAACchvgEAOAnxDQDASYhvAABOQnwDAHAS4hsAgJMQ3wAAnIT4BgDgJJd+X7Czs7OoqCg/P7+mpsZqtfr4+ISHh6vVak9Pz0uXLv3pT39asmRJWFhYl1d99tlnFy5c+N3vfufu7k5ElZWVx48fr6ystFgsIpEoODh4ypQpUqn07l8TAMBDwKX4/uKLL4qKiqKioh577DGGYYxGY15eXllZ2fPPPx8UFOTr61tUVNQlvi0Wy+nTpydOnGjL7vz8/H379ikUisTERJFIVFdXd/LkyS1btjz77LPDhw//Ra4MAOCB1nt8FxYWFhUVzZs3LzY21tYyevToqKioLVu2ZGdnz5s3T6VS5ebmms1moVBof1VFRUV7e/u4ceOIyGQyZWRkREZGpqamurm52TpER0f/6U9/2rt375o1a+yNAADgot7jW6vVBgQE2LPbRiqVvvDCC7apD5VKlZ2dXVpaOn78eHuHoqIiuVzu5+dHRCdPnnR3d09JSXGMaYFAsHjxYj6fj+wGAOiDXj66NJvNNTU1o0aNuvWQTCbj8/lE5OPjExwcXFRUZD/U1NR04cIF2603EV28eDEoKMjx3tzG19fX29v7Z5UPAPCw6iW+m5qaiMjHx6fnbuPGjausrKyvr7ftFhcXu7m5RUZG2gfpdQQAALgjvcQ3j8cjos7Ozp67hYeHDxgwoLi42LZbXFw8atQoT09P+yAdHR0/u1QAAPhJL/Ht7e3t5uZWW1vbc7cBAwaMGTPGNn9iMpmqqqrsMydEJBaLex0BAADuSC/xzefzAwICysrKbr0BLy8v//bbb+2748aN++GHH4xGY3FxsUgkGjFihP2QUqk0GAwNDQ1dRrh69apWq7U/NRkAAFzX+7cuJ02aZDKZjh075thYU1OTnp5+5swZe0tQUJBEIjl9+nRFRcXYsWNty71tYmJieDxeenq6Y1K3trZ+8cUXBQUFd+MqAAAeOr0vHIyIiLhw4UJOTo7RaIyIiBgwYMDly5dPnTrl5+c3c+ZMezc3NzeVSpWfn3/t2rWnn37acQSJRDJv3rzdu3d/+OGH48ePF4vFdXV1eXl57e3ty5Yts02vAwDAHXHpW5dz584dPnx4fn7+wYMHWZb19fWdNm2a7RuYjt1UKlVOTo59ubejsWPHDh48WKPRfPnlly0tLd7e3iNHjpwyZYpYLL5rlwIA8DBxKb6JKDIy0r4Q8HYkEsnbb799u6MBAQFd7soBAKDP8IuDAACchPgGAOAkxDcAACchvgEAOAnxDQDASYhvAABOQnwDAHAS4hsAgJMQ3wAAnIT4BgDgJMQ3AAAnIb4BADgJ8Q0AwEmIbwAATkJ8AwBwklN883g8lmX7qxQAAOgZy7L2J5Q5xbdcLtfr9f1REgAA9E6v18vlctu2U3yrVCqtVosbcACA+xDLslqtVqVS2XbdOjs7HQ9nZ2cbDAa1Wq1UKrs8yhIAAPoFy7J6vV6r1SoUivj4eFtj1/gmovLycp1OZzQarVbrPS8SAAC64vF4crlcpVKFh4fbG7uJbwAAuP9h4SAAACchvgEAOAnxDQDASYhvAABO6mZpIFaeAADcV7pdedI1vrHuGwDgfmNf933lypXu132Xl5efOnVq6dKlCG4AgPsNy7I7d+4cP3687R7cae5bp9Op1WpkNwDAfYhhGLVardPpbLtO8W00GpVKZX9UBQAAvVMqlUaj0bbtFN9WqxW33gAA9y2GYeyLSrBwEACAkxDfAACchPgGAOAkxDcAACchvgEAOAnxDQDASYhvAABOQnwDAHAS4hsAgJMQ3wAAnIT4BgDgJMQ3AAAnIb4BADip9/j+29/+tm7duuPHj3dpv379+quvvrpu3bqOjg4i0mq169at27lz560jvP/+++vWrTt//ny343d2dr7++usVFRWOjfv27duwYUNTU5NjY0dHx+bNm7dt22a1Wt97772tW7c6PmuCiOrr61977bXDhw/3elEAAFzn0t03n88vKSnp0lhWVsbj8bp0O3fuXEtLi2OjyWSqra3tYfCampqWlpbg4GDHxsTERIZh/vnPfzo2njhxora2du7cuTweb86cOZcvX7b/bLnNwYMHvby8pk+f7spFAQBwmkvxHRQUVFVVZTKZHBtLS0sDAgIcW7y9vQcNGlRWVubYWFJS0qVbF+fOnZPJZEKh0LFRKBQmJibqdLrLly/bWpqbm3NyciZOnDhkyBBbSWPHjj18+HBra6t9nG+//TY5OZnP57tyUQAAnOZSfItEoiFDhjjegDc2Nl68ePHRRx917Ga1WkeOHFlcXOzYWFpa2qVbF+fPn++2Q3R0dEBAwIEDB2wzJEeOHOHz+fZndBJRUlJSe3t7bm6u7dQHDx4cMWLE6NGjXbkiAACucym+Ozo6IiIiHHO5tLTU39//kUcecezW2dkZERFx6dKlhoYGW0tVVVVdXV0Pkcqy7KVLl7qNbzc3tzlz5hiNxm+++cZoNBYWFiYlJXl4eNg7eHl5xcfHf/311z/88MOJEyfq6+tTUlJcuRwAgAeAqytPoqKi6urqvv/+e9tuaWlpZGTkrd0UCoVEIiktLbXtlpSUKJVKLy+v2w1bWVlpe1W3R2Uy2YQJEw4fPrx///6goKCoqKguHSZOnCiVSvfu3Xvs2LHHH3/c19fXxcsBAOA6V+Pbx8dHoVDY5k9sOd5tfBNRZGSk7T69s7Pzdilvd/78+aCgoB4esJmQkEBEVVVVc+bM6aZ6d/c5c+ZcvHjR09Pz8ccfd/FaAAAeAHew7jsqKqq0tLSzs9P2aaREIrldt+rqapPJZDAYmpubw8LCehjzdhPfdkKhMDg4+JFHHvHz8+u2Q2BgoJeXV2hoKB6yDAAPlTuI74iIiObm5kuXLvV8T+3n5zdkyJCysrKSkpLQ0FDH2eouWlpaqqqqlErlnZUMAAB3FN8DBw589NFH8/Pzr169GhER0UPPqKio77777syZMz3PnOj1ek9Pz6FDh7peAwAA2NzZl+Zt8yfBwcEikaiHbpGRkd9///3169dHjhzZQ7fz588rlUo3N7c7qgEAAOhO43v06NE8Hq/ne2oiGjRoUGBg4OjRo3v+Bo0tvu+oAAAAsHFz/NmQTZs2bdy4sR+rAQCAntmDGr84CADASYhvAABOQnwDAHAS4hsAgJMQ3wAAnIT4BgDgJMQ3AAAnIb4BADgJ8Q0AwEmIbwAATkJ8AwBwEuIbAICTEN8AAJyE+AYA4CTENwAAJznFN4/HY1m2v0oBAICesSzL4/Fs207xLZfL9Xp9f5QEAAC90+v1crnctu0U3yqVSqvV4gYcAOA+xLKsVqtVqVS2XaeHpRFRdna2wWBQq9VKpZJhmP6oEAAAnLAsq9frtVqtQqGIj4+3NXaNbyIqLy/X6XRGo9Fqtd7zIgEAoCsejyeXy1UqVXh4uL2xm/gGAID7HxYOAgBwEuIbAICTEN8AAJyE+AYA4CSnpYE1NTX79u0zGAz9Vc0DT6FQzJ0719/fv78LAQDOc1p58tFHH4WGho4dO7YfC3qwFRUVnT179t/+7d/6uxAA4DynyRODwYDs/kWNHTsW/7gBgLsCc98AAJyE+AYA4CTENwAAJ7kW32zhBpWPj/9NgSMmL9qQedHyC9fmmjPvTvb/qTT/EbHJr+wqu96/NZk0/5uDGW4A+EW5fvctmP9nQ41NaeZLftnL//87ZffJL8sycW8W3SjNkPPmmKINS/5T059/W0xHt76dbbhP3hwAeED1afJEHDL/PxbHXtRoLhFV70gOXPLuR0tiI+Lf/Ibocs6bi45LnH8AAAbNSURBVCbHqmJjVbGTl76bU217gaXs01XxMZGRo0fEzl6764yFiMhiyNy4cHJMbGxMbOzctennLUREJs27iydHRkRGRkTaezZ+s3X5jNhIVWRkRGT88zsKG3sqTRAwY82yuJqvcspYImos3LI8PiYyUhUZOTF5Q4aBiMp+Pzlw0S7Tzf5lv58cuDjdlLE8cPabO15fvnDu5EhV/NqMwpx3li+cGx+rmrzqixu30Y3fbF2eGBsbExsbE7/8fU0jEbFl706NXPXxrg1LFyYnxkbGLdlabKHrOWtT3tRc3bNq6sKt5X15dwEAXNHXuW+WzETEI2IExGqONizLLs1eP86w9cXlOSGbs3X5+brs9ZLdy3+zy0Rk+df6JR+aV2SUlJwu2/74uQ3PbS1jqWzLkpcKxmzOyc8v0OxOMvzu1++UsVS2Y8PHgjXHS0tKSvN3PUk5WfkWMux5fbNp0e4SXUmJLvslP81BranX6sj2LKFTm1/c0rjwHyUlupLs30h3r3kz8zqNSV0QcjJ990XbVZQdzKqZ8eQMKUOtRTk18Vt37zuevVK468UXs6M2796Xnf2a4uCHu8pYorrMNc/soGW78wvy8w+v99+//KW9jcR4ENUc/Zdl8fbdBw5rtj/+3eYtmY0DZ7zz3kJ/3wVbvtz9YnhPNQIA/Bx9iu/Gc+nv7ToXPjs+gIhIQIqEOXFiIqrOySkKWfBMtJiISDxjUbzfyRzNdco/kmN+fOGsoUQkGPPS7tLDvxlDZTmZ38U8/VK0mIgEil8tj7uac/AMiQcPsnx7cNeRMtN1Qciv3klbGyegQYOkAkNOeuY3hkaSztqU9kaStIfSLBdzNu/QKBJnj2GIxr+hKd21bDgRkVQdF8EaDHVEwxcuji7ds7eMiOibPZnXExbOEBORx9C4hHECIpI+GuIvjps1RUxE4uEhfnWmq0QW7cGcgbNWJCuIiHzjFs9RaLJybPMzEUkLQhgiEoSEKKimpqEvbygAwB1z/Xk6lvTnFZnPExGRl/8I9eLtn7wYYns1M0gsJiKixsYGurlNRBI/MVvW0GgR1NUMkg0S3DihQMwQsQ01jRbN65Mj37vR10w0u5YUK9L2DPzjxx+/9MfnawZFL1z7+vr5I8XzP8ykj7buWpf80mVBRNLy9ZuWRYvJCatZP9Z/PRERefiOiJn/x12vRQuIqLFs99ub0wsMZkZAbOO5VnEcS0TS2alxG97aU/jvI8z7Mylp+wxbZR43KyQiDw/hzbfHw3Zl9abWyznLYzNvntEsCGmoISLyEA/0uPleehAAwL3ienwL5v/ZsD1F0FMXsXgQNTTWE/kSEVH91UZG6icWiH39r15tsBAJiIhtNFyyDAry9/cVx6/MT5vXZUBx9K/WR/9qPVlMmreeXrJy65gvfxMyMGT+2i3z1xLVFW59/unlvw8peSvO+SLi3iw4sGxo13IK316+4czi7Iy0kIFE1TuSY3bfOMcTi2f/59rdx+LomHjWjmhXLl4skXqELEv7cv0YpzfsnCuvBQD4JdzVdd9DZ8yKObfn74WNRMSacv6e3fB4QuxAin1ixqB/bd913kJkOffRksm//thAITMSFfn/u922wq+xeMfaF3eUWRozfxO//NNzFiISSENH+AuIWq9r3py98N1vGomIfENGBAhdL6ehsUEwdIRiIBFrytmReZa1WGzzHQPjFqcIDv5u7UHJ7IVRLg0lUM+eUZe544iJiIg1Zb6+fMOR20/BMySwNDTeH+sqAeBBdXcfRqxY9sH2mlfWxMe0EpF4zOLtm+dLiejx9Wm/2bAmdcw7zSQcnvDGtrVjGKJVaZub174Ut6ORiAaGzH/tnTEC8YhlizW/Wxz7oYUYEkij1769bMxAsXhFztr/mBx5nYgE0jGLt3S59b69uOfWxq1cGztRLPUPmf3vb6w/v+DNX69SpG+ZP1QQnTrL/+Otg56bH+LiWL6zNn9iWLNpVuRGC7EChXr5GxOkRLeZ6B45Iz5gyUtjYzUfat55osd/rwAA9JXTLw6+8sorv/3tb/uxmnunetfCGTmz/pW2uKfPQX8Rf/jDH9566617fVYAeOA8lF+aZ02Zv99qSFm28J5nNwDA3fLwxfe/NsSOVr/ZuHj7a3GY1wAA7rq7c99c8Pgb+d+90d9FAAD8XE533wqFoqioqL9KeRgUFRUpFIr+rgIAHgROH13iWZe/NDzrEgDuFqf4BgAArnj4ProEAHggIL4BADgJ8Q0AwEmIbwAATkJ8AwBwEuIbAICTEN8AAJyE+AYA4CTENwAAJyG+AQA4CfENAMBJiG8AAE5CfAMAcNL/ARqIA9U5D2UyAAAAAElFTkSuQmCC;" parent="1" vertex="1">
                    <mxGeometry x="80" y="240" width="143.9" height="79" as="geometry"/>
                </mxCell>
                <mxCell id="23" value="&lt;b&gt;init&lt;/b&gt;(amount, user-info)" style="text;html=1;align=center;verticalAlign=middle;resizable=0;points=[];autosize=1;strokeColor=none;fillColor=none;fontSize=14;" parent="1" vertex="1">
                    <mxGeometry x="391.15" y="50" width="160" height="30" as="geometry"/>
                </mxCell>
                <mxCell id="24" value="&lt;font color=&quot;#ff0000&quot;&gt;payment_id&lt;/font&gt;" style="text;html=1;align=center;verticalAlign=middle;resizable=0;points=[];autosize=1;strokeColor=none;fillColor=none;fontSize=14;" parent="1" vertex="1">
                    <mxGeometry x="406.15" y="95" width="100" height="30" as="geometry"/>
                </mxCell>
                <mxCell id="25" value="" style="endArrow=classic;html=1;strokeColor=#FFFFFF;fontSize=14;" parent="1" edge="1">
                    <mxGeometry width="50" height="50" relative="1" as="geometry">
                        <mxPoint x="600.9" y="365" as="sourcePoint"/>
                        <mxPoint x="480" y="365" as="targetPoint"/>
                    </mxGeometry>
                </mxCell>
                <mxCell id="26" value="&lt;b&gt;acknoledged&lt;/b&gt;" style="text;html=1;align=center;verticalAlign=middle;resizable=0;points=[];autosize=1;strokeColor=none;fillColor=none;fontSize=14;" parent="1" vertex="1">
                    <mxGeometry x="480.9" y="330" width="110" height="30" as="geometry"/>
                </mxCell>
                <mxCell id="27" value="&lt;font color=&quot;#ff0000&quot;&gt;payment_id&lt;/font&gt;, success" style="text;html=1;align=center;verticalAlign=middle;resizable=0;points=[];autosize=1;strokeColor=none;fillColor=none;fontSize=14;" parent="1" vertex="1">
                    <mxGeometry x="440.9" y="375" width="150" height="30" as="geometry"/>
                </mxCell>
                <mxCell id="29" value="add payment-method" style="strokeWidth=2;html=1;shape=mxgraph.flowchart.start_1;whiteSpace=wrap;" parent="1" vertex="1">
                    <mxGeometry x="325.05" y="560" width="100" height="60" as="geometry"/>
                </mxCell>
                <mxCell id="30" style="edgeStyle=none;html=1;fontSize=14;exitX=0;exitY=0.75;exitDx=0;exitDy=0;" parent="1" edge="1">
                    <mxGeometry relative="1" as="geometry">
                        <mxPoint x="530.8499999999999" y="610" as="targetPoint"/>
                        <mxPoint x="680.28" y="610" as="sourcePoint"/>
                    </mxGeometry>
                </mxCell>
                <mxCell id="32" value="&lt;b&gt;init&lt;/b&gt;(user, ... )" style="text;html=1;align=center;verticalAlign=middle;resizable=0;points=[];autosize=1;strokeColor=none;fillColor=none;fontSize=14;" parent="1" vertex="1">
                    <mxGeometry x="485.00000000000006" y="550" width="100" height="30" as="geometry"/>
                </mxCell>
                <mxCell id="33" value="&lt;font color=&quot;#ff0000&quot;&gt;payment_method_id&lt;/font&gt;" style="text;html=1;align=center;verticalAlign=middle;resizable=0;points=[];autosize=1;strokeColor=none;fillColor=none;fontSize=14;" parent="1" vertex="1">
                    <mxGeometry x="537.73" y="610" width="150" height="30" as="geometry"/>
                </mxCell>
                <mxCell id="40" value="" style="strokeWidth=2;html=1;shape=mxgraph.flowchart.delay;whiteSpace=wrap;fontSize=19;rotation=-180;" parent="1" vertex="1">
                    <mxGeometry x="600.9" y="330" width="100" height="60" as="geometry"/>
                </mxCell>
                <mxCell id="42" value="&lt;b&gt;execute&lt;/b&gt;(&lt;font color=&quot;#ff0000&quot;&gt;payment_id&lt;/font&gt;)" style="text;html=1;align=center;verticalAlign=middle;resizable=0;points=[];autosize=1;strokeColor=none;fillColor=none;fontSize=14;" parent="1" vertex="1">
                    <mxGeometry x="479.4800000000001" y="1450" width="160" height="30" as="geometry"/>
                </mxCell>
                <mxCell id="43" style="edgeStyle=none;html=1;" parent="1" edge="1">
                    <mxGeometry relative="1" as="geometry">
                        <mxPoint x="674.48" y="1490" as="targetPoint"/>
                        <mxPoint x="474.48" y="1490" as="sourcePoint"/>
                    </mxGeometry>
                </mxCell>
                <mxCell id="49" style="edgeStyle=none;html=1;" parent="1" source="50" edge="1">
                    <mxGeometry relative="1" as="geometry">
                        <mxPoint x="672.8000000000001" y="1360" as="targetPoint"/>
                    </mxGeometry>
                </mxCell>
                <mxCell id="50" value="auto-recharge" style="strokeWidth=2;html=1;shape=mxgraph.flowchart.start_1;whiteSpace=wrap;" parent="1" vertex="1">
                    <mxGeometry x="297" y="1330" width="100" height="60" as="geometry"/>
                </mxCell>
                <mxCell id="51" style="edgeStyle=none;html=1;fontSize=14;exitX=0;exitY=0.75;exitDx=0;exitDy=0;" parent="1" source="52" edge="1">
                    <mxGeometry relative="1" as="geometry">
                        <mxPoint x="584.8000000000001" y="1405" as="targetPoint"/>
                    </mxGeometry>
                </mxCell>
                <mxCell id="52" value="&lt;font style=&quot;font-size: 14px;&quot;&gt;create payment_id&amp;nbsp;&lt;/font&gt;" style="rounded=1;whiteSpace=wrap;html=1;absoluteArcSize=1;arcSize=14;strokeWidth=2;fontSize=23;" parent="1" vertex="1">
                    <mxGeometry x="674.8000000000001" y="1330" width="100" height="100" as="geometry"/>
                </mxCell>
                <mxCell id="53" value="&lt;b&gt;init&lt;/b&gt;(amount,&lt;font color=&quot;#ff0000&quot;&gt;payment_method_id&lt;/font&gt;)" style="text;html=1;align=center;verticalAlign=middle;resizable=0;points=[];autosize=1;strokeColor=none;fillColor=none;fontSize=14;" parent="1" vertex="1">
                    <mxGeometry x="425.85" y="1320" width="230" height="30" as="geometry"/>
                </mxCell>
                <mxCell id="54" value="&lt;font color=&quot;#ff0000&quot;&gt;payment_id&lt;/font&gt;" style="text;html=1;align=center;verticalAlign=middle;resizable=0;points=[];autosize=1;strokeColor=none;fillColor=none;fontSize=14;" parent="1" vertex="1">
                    <mxGeometry x="479.8" y="1390" width="100" height="30" as="geometry"/>
                </mxCell>
                <mxCell id="55" value="" style="endArrow=classic;html=1;strokeColor=#FFFFFF;fontSize=19;exitX=1;exitY=0.5;exitDx=0;exitDy=0;exitPerimeter=0;edgeStyle=orthogonalEdgeStyle;" parent="1" source="29" edge="1">
                    <mxGeometry width="50" height="50" relative="1" as="geometry">
                        <mxPoint x="400" y="700" as="sourcePoint"/>
                        <mxPoint x="680" y="590" as="targetPoint"/>
                    </mxGeometry>
                </mxCell>
                <mxCell id="56" value="one-time PAYment" style="text;html=1;align=center;verticalAlign=middle;resizable=0;points=[];autosize=1;strokeColor=none;fillColor=none;fontSize=19;fontStyle=1" parent="1" vertex="1">
                    <mxGeometry x="15" y="20" width="190" height="40" as="geometry"/>
                </mxCell>
                <mxCell id="57" value="add payment-method&lt;br&gt;&lt;b&gt;CR&lt;/b&gt;&lt;strike&gt;U&lt;/strike&gt;&lt;b&gt;D&lt;/b&gt;" style="text;html=1;align=center;verticalAlign=middle;resizable=0;points=[];autosize=1;strokeColor=none;fillColor=none;fontSize=19;" parent="1" vertex="1">
                    <mxGeometry x="51.95" y="500" width="200" height="60" as="geometry"/>
                </mxCell>
                <mxCell id="58" value="&lt;b&gt;Auto-recharge&lt;br&gt;&lt;/b&gt;using payment-method" style="text;html=1;align=center;verticalAlign=middle;resizable=0;points=[];autosize=1;strokeColor=none;fillColor=none;fontSize=19;" parent="1" vertex="1">
                    <mxGeometry x="46.95" y="1250" width="220" height="60" as="geometry"/>
                </mxCell>
                <mxCell id="59" value="" style="sketch=0;pointerEvents=1;shadow=0;dashed=0;html=1;strokeColor=none;labelPosition=center;verticalLabelPosition=bottom;verticalAlign=top;outlineConnect=0;align=center;shape=mxgraph.office.security.lock_protected;fillColor=#DA4026;fontSize=19;" parent="1" vertex="1">
                    <mxGeometry x="553.95" y="50" width="10" height="10" as="geometry"/>
                </mxCell>
                <mxCell id="60" value="" style="sketch=0;pointerEvents=1;shadow=0;dashed=0;html=1;strokeColor=none;labelPosition=center;verticalLabelPosition=bottom;verticalAlign=top;outlineConnect=0;align=center;shape=mxgraph.office.security.lock_protected;fillColor=#DA4026;fontSize=19;" parent="1" vertex="1">
                    <mxGeometry x="671.8" y="540" width="10" height="10" as="geometry"/>
                </mxCell>
                <mxCell id="61" value="" style="sketch=0;pointerEvents=1;shadow=0;dashed=0;html=1;strokeColor=none;labelPosition=center;verticalLabelPosition=bottom;verticalAlign=top;outlineConnect=0;align=center;shape=mxgraph.office.security.lock_protected;fillColor=#DA4026;fontSize=19;" parent="1" vertex="1">
                    <mxGeometry x="475" y="335" width="10" height="10" as="geometry"/>
                </mxCell>
                <mxCell id="64" value="" style="sketch=0;pointerEvents=1;shadow=0;dashed=0;html=1;strokeColor=none;labelPosition=center;verticalLabelPosition=bottom;verticalAlign=top;outlineConnect=0;align=center;shape=mxgraph.office.security.lock_protected;fillColor=#DA4026;fontSize=19;" parent="1" vertex="1">
                    <mxGeometry x="645.85" y="1310" width="10" height="10" as="geometry"/>
                </mxCell>
                <mxCell id="69" value="" style="endArrow=none;html=1;strokeColor=#FFFFFF;fontSize=19;" parent="1" edge="1">
                    <mxGeometry width="50" height="50" relative="1" as="geometry">
                        <mxPoint x="40" y="480" as="sourcePoint"/>
                        <mxPoint x="1160" y="480" as="targetPoint"/>
                    </mxGeometry>
                </mxCell>
                <mxCell id="70" value="" style="endArrow=none;html=1;strokeColor=#FFFFFF;fontSize=19;" parent="1" edge="1">
                    <mxGeometry width="50" height="50" relative="1" as="geometry">
                        <mxPoint x="40" y="1230" as="sourcePoint"/>
                        <mxPoint x="1160" y="1230" as="targetPoint"/>
                    </mxGeometry>
                </mxCell>
                <mxCell id="80" value="Actor" style="shape=umlActor;verticalLabelPosition=bottom;verticalAlign=top;html=1;outlineConnect=0;" parent="1" vertex="1">
                    <mxGeometry x="30" y="285" width="30" height="60" as="geometry"/>
                </mxCell>
                <mxCell id="82" style="edgeStyle=none;html=1;entryX=1;entryY=0.25;entryDx=0;entryDy=0;" parent="1" target="18" edge="1">
                    <mxGeometry relative="1" as="geometry">
                        <mxPoint x="296.9499999999999" y="270" as="targetPoint"/>
                        <mxPoint x="580" y="260" as="sourcePoint"/>
                    </mxGeometry>
                </mxCell>
                <mxCell id="83" value="Credit Card" style="text;html=1;align=center;verticalAlign=middle;resizable=0;points=[];autosize=1;strokeColor=none;fillColor=none;fontColor=#FFFFFF;" parent="1" vertex="1">
                    <mxGeometry x="340" y="275" width="80" height="30" as="geometry"/>
                </mxCell>
                <mxCell id="86" value="&lt;b&gt;execute&lt;/b&gt;(&lt;font color=&quot;#ff0000&quot;&gt;payment_method_id&lt;/font&gt;)" style="text;html=1;align=center;verticalAlign=middle;resizable=0;points=[];autosize=1;strokeColor=none;fillColor=none;fontSize=14;" parent="1" vertex="1">
                    <mxGeometry x="438.62999999999994" y="690" width="210" height="30" as="geometry"/>
                </mxCell>
                <mxCell id="87" style="edgeStyle=orthogonalEdgeStyle;html=1;" parent="1" edge="1">
                    <mxGeometry relative="1" as="geometry">
                        <mxPoint x="680" y="741" as="targetPoint"/>
                        <mxPoint x="458.62999999999994" y="720" as="sourcePoint"/>
                    </mxGeometry>
                </mxCell>
                <mxCell id="88" value="" style="edgeStyle=none;html=1;strokeColor=#FFFFFF;fontSize=19;exitX=1;exitY=0.5;exitDx=0;exitDy=0;" parent="1" edge="1" source="124">
                    <mxGeometry relative="1" as="geometry">
                        <mxPoint x="331.6300000000001" y="777.5040439201027" as="sourcePoint"/>
                        <mxPoint x="680" y="781" as="targetPoint"/>
                    </mxGeometry>
                </mxCell>
                <mxCell id="89" style="edgeStyle=none;html=1;entryX=1;entryY=0.25;entryDx=0;entryDy=0;" parent="1" edge="1">
                    <mxGeometry relative="1" as="geometry">
                        <mxPoint x="223.7000000000001" y="741" as="targetPoint"/>
                        <mxPoint x="680" y="741" as="sourcePoint"/>
                    </mxGeometry>
                </mxCell>
                <mxCell id="90" value="Credit Card" style="text;html=1;align=center;verticalAlign=middle;resizable=0;points=[];autosize=1;strokeColor=none;fillColor=none;fontColor=#FFFFFF;" parent="1" vertex="1">
                    <mxGeometry x="317" y="752" width="80" height="30" as="geometry"/>
                </mxCell>
                <mxCell id="91" value="" style="shape=image;verticalLabelPosition=bottom;labelBackgroundColor=default;verticalAlign=top;aspect=fixed;imageAspect=0;image=data:image/png,iVBORw0KGgoAAAANSUhEUgAAAeoAAAENCAIAAABPTrFXAAAACXBIWXMAAA7EAAAOxAGVKw4bAAAgAElEQVR4nO3dfVwTV74/8C9kYggSIsEGNJGApIgKAkZArUHrA5SfKPhY7Fb7s6u2vbbae1dtt6vXa9u7e9vaJ1e7u9XWXdzbbhUVBVcF6dakokDDs9VqVGIDYgoUBAmBCdw/ommCCJFacfTzfu0fM2dOznwn3deH8eQk49bZ2UkAAMA17v1dAAAA9AXiGwCAkxDfAACcxNzaVF5ertPpjEaj1Wq99wUB3AM8Hk8ul6tUqvDw8P6uBaCPusZ3dna2wWBQq9VKpZJhugl3gAcAy7J6vV6r1V65ciU+Pr6/ywHoCzfHlSfl5eWnTp1aunQpghseBizL7ty5c/z48bgHBy5ymvvW6XRqtRrZDQ8JhmHUarVOp+vvQgD6wim+jUajUqnsr1IA7j2lUmk0Gvu7CoC+cIpvq9WKW294qDAMg4/ogaOwcBAAgJMQ3wAAnIT4BgDgJMQ3AAAnIb4BADgJ8Q0AwEmIbwAATkJ8AwBwEuIbAICTEN8AAJyE+AYA4CTENwAAJyG+AQA4CfENAMBJd/TzsOaqwtzc/IoLNdfMLAnFfopR0dOmT1QM/Jk1VB1978MCxYoN87r81Dhb8dl/ptU/8eqLcRLXB+vQp//3x5Wxa9bES7seaszb9ocs0VOvLxmDH8UFAM5zOcg66ov/8fHnZWZZ2MSESTIJ015vKM8ryNhWoV/04pIo8S9ZIwAA3MLV+K4/mb6nxKxMXvnsY9IbrwmLionWfLotK+NQRehTYUIXB+rg1IQNt6oFgIeJi/FdVZivZ+UJ8+3ZbXuxNG7Rc4p2X4WQiIitys84pD1TWdvEugsliqiE5KQof4aImrTb3vjKb9Es0uwvMkc+9+ochbkyd8++vLMmM98nMCphYk9FuFNTWcbnh4oNje3Cwcq4OYumBdvOZio+nJVbojddZ4UimSJyWkpimKRr1LJVJ/ekf1ledZ0vGRoeN93H8ZjZmHfokKbcUG92F0mVUU8kJYUNJiK2+K+v7XFPWfJI8R5tlSLVeaalQ5/+359ejXtucvPRI99Umsx8SVB0UmpSmO0fH41nj2YeLT5/td7CMiJZaOzMOdOVIiKqObp5S3no00+QNqvQUN8ulI2duXim9GxGem55TRPfJzTuyUXTAm1//lhTUVbWl+X62iYSSgLHTE35fzFSgWv/iQDgIeNafDcZDCaSTQ+/dQ5aNFRh22AvZH26v9xv6qKVkVJ+m6n88Oef/52R/keSzJ2I4ZOlUqMLnPD0c7LBMrpesedvRy8MTVjyVJS0o7rw8JGCxtuf+seCrKLwyb9aKe2oysvYczQ9V7k2SeFuPpv+l8+/k0ybszJ6mNBsyMvYn/Yxu2JNstLxetgLWbsOlIsee2r1pKH82oojh4+bOkhkO1abt2t7xtWghEWroqQd1YWZe9I+YVe8nKIUEJ9h2Ko8DROz4PkU6SNd3h8+486a8rLKp6Ss3CDj1xd/9pfP9xxWhqaGMlSf94+03Kax85cuUnpR0yXNnv279kjWPDtWRMTwO5qKj5UnLFy9abC5ePe2z/d9XBkUmvTMbxd5XtX8dVtWRl74y9OkRE1ln/1l9wXJ5AUrxw/l11YcSU//i9lzjev/sgGAh4lrUwNNTdeIRJKePkFkFAkvv7JmcXyoTCqRykMnPxYqrL1wtp7I9ieizSx7LCXmUYXMhzF/V3DWLIubNS3UXyIZGpYwN0Ziuf24bZKJCxLCAqTSwKiEx5T0Y3XVdaKmYk1Zk2zKooQxMomPRBaZlBIjrS/KO+s0DqvXFdeLYhJmhsl8JNJH4xZMkrXfPGY4qdG7h8158mYNqQmKxgLNafONt6RJEpkcFxogk3QXnO2Do5MmyITuxAyOigkWmqsN9UREkpin1rz6QkpMoFQyWKqInhrlbzacq7r5HpslEQkx/kJiJOFjlMI2szQ6KdSHIYEsKkxGpioTS0T1xZoKc1DCksSbBSeGsWXHC3906T8RADxs7mQNRs8PdGXYKt3+3MILVY1mtoOIiNylLHvzqLvfUNmNc9VfqWcFMtngm4fECpmY6m83rK/CvrKFLxQyVM+yRLXVVzsk4Yqf/pz4KaSM1lRVR2H+9rZrJpOZpENlN/9CCeUKP3c9ERE1VVXXk3+cwp7OIoVyMFtgqKKxgUREgxWBt19O4+3vJ7q5LRQKqb293TZF3qTXHNKUG0xNbTffEgnL3niLhZJHblTLCPiMu8jv5iyUUCikDrbFSkTVldXkN1X50+BBSillVX7PxvlgqQwAdOVaLoh9vInqa68SyW7Xpf54WtqxpvDkZ5eMVYgERGfTN/610vFEwgE3tsxtZmL4jLvDIf7tT+3udMy2w5pbzA4DEhHDePKJNbc59mXNLDHe/J9eL+DfvFqz2UJkzHjj1YyfuncQM7jpxp8bht/D+8K4d3fQcjZjZ3q5z7RFq+KUUiFD9Zqt/3PEsXKnf+c4Xv6NsxPb0tpBVcc2rzvm1K5oMhOJCADAmWvxPTAw2J+Oni6uSpDJnHOnviy32D1qchj/7GkDG5ySMuHGHS3bcq29u5GISDiAT2w7+9OiDrO5h8mTbosWegqdw5pta2l3DnQiRsgQa2lvt1+k2XwzCIVCAVFwwuo54U5/HASSvt/lXq440ySJ+lVCqG25eYf5WusdjiDw9GBINmHFomhvx2ZGhOwGgG64uCxOGvNYqNCUl37UwDq0stWa9L1H88qq26mdZYkReN9Mw6YCnVNPRxKplLGYqmpv7tcaDE13WLV/gJ97fZXhpxmXKkM1K5QpnL6p4y0dLCRTdVXHzZouGepvbIsUcgnVN7ES6U0SobtQIv4ZcxTt7SwxQo8be+zlwopaoo4eX9IFMzTQn+obW38qarCQ4Yu6nX8HAHB1VbMoesGCsd5V//rL5k8yNIUVFWUFmsxPP/goq9InblFymJAkQ4eJ2Et5xyvrm2oNBXvTKsShUmq6aqg335LiwtAopaBKk5l7ttpkulyctb/42p0mlCg8LlJi+Cr96Lempsb6qpKMjPxr0pg4p3UnxCgjw0VNBYcOVVSZTFUVuXsK64V0I1JlsXHK1oI96Xl6U1NTbVXFsbQP3tuWVXm7vzgukClk7qbyExWmxqaqb3PTsszKYIatraxqcn1MSVRcGFOW9dnxs6Yfm+qrz2o+27Z5a0aFue9FAcADzPX7TVFY6urVwbm5+RW5+/PMHYzQRxYat2TJ5DDbwmRl/KJptemaP/9P7kCpMjZl0VTv4h/1Rw5syxCsSek6UtSCRaY9WZq0Lbl8H1lUQsrErz/WWO8oOoWhc1csOZxxZO8HuddZoVgWPOXZOdNlXS6GCZ25JLElQ/PZhydINDR8Wkoc/TnjxseqgycuXk6HDml2fZBh7mBE/qExT62YFsgQ9TXBxTEpyYbPsz/brONL5OFT5y8Ir+dXfpb36U7+ioWuvsmiMU89x2ZlfbXng8NNLCOSKsIXLE/CskEA6JZbZ2enfWfTpk0bN27sx2oA7j383x44Cl8JBwDgJMQ3AAAnIb4BADgJ8Q0AwEmIbwAATkJ8AwBwEuIbAICTEN8AAJyE+AYA4CTENwAAJyG+AQA4CfENAMBJiG8AAE5CfAMAcBLiGwCAkxDfAACc5BTfPB6PZX/GA8MAuIZlWR6P199VAPSFU3zL5XK9Xt9fpQDce3q9Xi6X93cVAH3hFN8qlUqr1eIGHB4SLMtqtVqVStXfhQD0hdOzLokoOzvbYDCo1WqlUskwrj/IGIBLWJbV6/VarVahUMTHx/d3OQB90TW+iai8vFyn0xmNRqvV2i81AfzSeDyeXC5XqVTh4eH9XQtAH3UT3wAAcP/DwkEAAE5CfAMAcBLiGwCAkxDfAACc1M3SQKw8AQC4r3S7VqprfGPdNwDA/cb+TYUrV67Yv6ngtHCwvLz81KlTS5cuRXADANxvWJbduXPn+PHjbffgTnPfOp1OrVYjuwEA7kMMw6jVap1OZ9t1im+j0ahUKvujKgAA6J1SqTQajbZtp/i2Wq249QYAuG8xDGNfVIKFgwAAnIT4BgDgJMQ3AAAnIb4BADgJ8Q0AwEmIbwAATkJ8AwBwEuIbAICTEN8AAJyE+AYA4CTENwAAJyG+AQA4qfcfqPqxoblvQ3t48IUegr69FgAAetZLfJtqG5qazX0eXTp4kMhL2Gu3zs7OoqKi/Pz8mpoaq9Xq4+MTHh6uVqs9PT37fGqbd999Nzg4OCUlpUu7VqvNzMycMGHCnDlzHNvfeeedyMjIGTNm/Mzz2vzXf/2XWq2eNm3aXRkNAMBRL/H9c7KbiJqaW1yJ7y+++KKoqCgqKuqxxx5jGMZoNObl5ZWVlT3//PMikejnFNADd3f3/Pz8CRMm+Pv7/0KnAAD45fT/3HdhYWFRUdG8efMWLVoUERExevTohISElStXNjY2Zmdnuz7OnT5YWSKRDBs27MCBA3dY772DR0UDQA9cejiD0GOAyOuneYz6H6+x1o67VYFWqw0ICIiNjXVslEqlL7zwglQqte0WFxcfP368traWYZjAwMBZs2b5+voS0ddff/3ll18uWLBgz549kZGRs2fPrqys3L9/v8lkkkgkTzzxhJub2+3Oa7Vak5OTt2zZUlFRERYW1uWo0WjcsmXLqlWr5HK5reWtt94aPXp0UlLSyZMns7Ozn3nmmb1799bV1Uml0tTU1Orq6uzs7Obm5qCgoNTU1IEDB9pe1dnZmZmZqdPp2tvbQ0JCFixYYJsRam5uzsrKOnv2bFtb25AhQxITE23PObpy5cr777//7LPPHjp0iGGY1atX3513GQAeOC7dffsM8hJ5Ce3/8xYNvFunN5vNNTU1o0aNuvWQTCbj8/lEdPny5c8//3z06NGrVq1atmxZe3t7WlqarQ/DMG1tbSdOnEhNTZ00aVJra+tf//pXT0/PVatWpaamnjx58tq1a7c7dUdHh1wuHzduXFZWFsuyrtfM4/EsFsvXX3+9YsWKV155xWKx/P3vf//uu+9Wr169evXq77//XqPR2DsXFBRYrdZly5YtXLjwwoUL+/bts536k08+MRgMTz/99Msvvzxs2LBPPvmkpqbGNjgRHTt2bMqUKQsXLnS9KgB42PTz5ElTUxMR+fj49NBn6NChr7766vTp06VSqVwunzRp0pUrV5qbm4nI3d29ra1t0qRJISEhEonkzJkzLS0tycnJQ4YMGTZs2Lx581paWnouIDEx8fr168ePH7+jslmWnTx5skgkEovFI0eONJlMs2bNEgqFjzzySHBwcHV1tb2nh4dHSkqKXC6PiIhQq9WnT59ub28/d+5cVVXVvHnzlEqlVCpNTk6WSCQnTpywXRERBQUFqVSqIUOG3FFVAPBQ6cuTLdvv5F61Z7abzc7Ozp77lJSUFBYWNjQ02KeDW1pavLy8bNvDhg2zbZhMJh6PZ/8o0tfX197ndkQi0dSpU3Nzc6Ojo729vV2v3D6xIxQKPT097ScSCoWNjY32bsOHD7dvy2Qyq9VaV1dnNBrd3d3th9zc3IKCggwGg72n/YoAAG7Hpfg2/dDguHsXJ769vb3d3Nxqa2t76FNQUJCdnT1v3rzw8HAPD4/z589v377dsYNQeGNxS2trq0DgtNLcw8Oj1xrUanV+fv4///nP1NRU1yu3Tezcut2F49rHAQMGEFFbW1tra2tHR8f69evthzo6Ohx72q8IAOB2XIrvu5jXXfD5/ICAgLKyshkzZnT5mLG8vJzH440aNaqiokKpVEZHR9vabfMt3RowYIDFYnFs6XXyhIgYhklKSkpLS5s4caJt7qJb7e3tvQ51q9bWVvu22Wy2Fenh4cEwzMsvv+zYs4dTAwDcyqXIaLjWXF1TV11TV1vXSES1dY223bY2todDLlYwadIkk8l07Ngxx8aampr09PQzZ84QkcVicbyn1ul0txtKKpVarVbbZ4C2QVyJbyIKCwtTKpUHDhyw30fb7n/t4dvU1NTDp6A9uHz5sn27urqaYRhfX9+AgACWZTs7O6U38fl8sVjch/EB4KHl0t13S4ulobGZiPh8xls00FR7Yy5lkNirh0MDXBs8IiLiwoULOTk5RqMxIiJiwIABly9fPnXqlJ+f38yZM4lIoVDk5+cbDAaRSPTVV18NHjz4/PnzRqPx1g88R44cKRAIMjIyZs6c2d7efvjw4V7nvu1mz579wQcfuLm5jRw5kogGDRrk5eWl0+kCAwNbW1sPHDjg+lCOGhoajh07FhUVVVtbe/LkyfDwcD6fr1QqZTLZP/7xj1mzZvn4+BgMhv3790+fPl2tVvfhFADwcHIpYYf6+w7197XvjhqhsG97CgW3O+S6uXPnDh8+PD8//+DBgyzL+vr6Tps2zfYNTCKaOnVqXV3d9u3bPTw8JkyYYNvdv3+/7WNPR56ens8888yBAwc++ugjHx+fxMRErVbr4pdf/P39Y2NjT548advl8XhPPvlkZmbmxo0bfXx8Zs6c2djY2NFxZ5NIVqt16tSp9fX1f/zjH9vb20NDQ21f33d3d//1r3+dlZWVlpbW1tYmkUiQ3QBwp9wcV31s2rRp48aNjoera+rMrW19Hl3kJZQOHtT36gAAwJk9qHuZ+xZ5eTK8Pn6kxvDcXfnBEwAA6INeJk9sX7O8N6UAAIDrsFgNAICTEN8AAJyE+AYA4CTENwAAJyG+AQA4CfENAMBJiG8AAE5CfAMAcBLiGwCAkxDfAACchPgGAOAkxDcAACchvgEAOMkpvnk8Hnv3niIPAAB3F8uy9ifVOMW3XC7X6/X9URIAAPROr9fL5XLbtlN8q1QqrVaLG3AAgPsQy7JarValUtl2nR6WRkTZ2dkGg0GtViuVStujJgEAoH+xLKvX67VarUKhiI+PtzV2jW8iKi8v1+l0RqPRxYf8AgDAL4rH48nlcpVKFR4ebm/sJr4BAOD+h4WDAACchPgGAOAkxDcAACchvgEAOKmbpYFYeQIAcF/pduVJ1/jGum8AgPuNfd33lStXul/3XV5efurUqaVLlyK4AQDuNyzL7ty5c/z48bZ7cKe5b51Op1arkd0AAPchhmHUarVOp7PtOsW30WhUKpX9URUAAPROqVQajUbbtlN8W61W3HoDANy3GIaxLyrBwkEAAE5CfAMAcBLiGwCAkxDfAACchPgGAOAkxDcAACchvgEAOAnxDQDASYhvAABOQnwDAHAS4hsAgJMQ3wAAnIT4BgDgJJd+X7Czs7OoqCg/P7+mpsZqtfr4+ISHh6vVak9Pz0uXLv3pT39asmRJWFhYl1d99tlnFy5c+N3vfufu7k5ElZWVx48fr6ystFgsIpEoODh4ypQpUqn07l8TAMBDwKX4/uKLL4qKiqKioh577DGGYYxGY15eXllZ2fPPPx8UFOTr61tUVNQlvi0Wy+nTpydOnGjL7vz8/H379ikUisTERJFIVFdXd/LkyS1btjz77LPDhw//Ra4MAOCB1nt8FxYWFhUVzZs3LzY21tYyevToqKioLVu2ZGdnz5s3T6VS5ebmms1moVBof1VFRUV7e/u4ceOIyGQyZWRkREZGpqamurm52TpER0f/6U9/2rt375o1a+yNAADgot7jW6vVBgQE2LPbRiqVvvDCC7apD5VKlZ2dXVpaOn78eHuHoqIiuVzu5+dHRCdPnnR3d09JSXGMaYFAsHjxYj6fj+wGAOiDXj66NJvNNTU1o0aNuvWQTCbj8/lE5OPjExwcXFRUZD/U1NR04cIF2603EV28eDEoKMjx3tzG19fX29v7Z5UPAPCw6iW+m5qaiMjHx6fnbuPGjausrKyvr7ftFhcXu7m5RUZG2gfpdQQAALgjvcQ3j8cjos7Ozp67hYeHDxgwoLi42LZbXFw8atQoT09P+yAdHR0/u1QAAPhJL/Ht7e3t5uZWW1vbc7cBAwaMGTPGNn9iMpmqqqrsMydEJBaLex0BAADuSC/xzefzAwICysrKbr0BLy8v//bbb+2748aN++GHH4xGY3FxsUgkGjFihP2QUqk0GAwNDQ1dRrh69apWq7U/NRkAAFzX+7cuJ02aZDKZjh075thYU1OTnp5+5swZe0tQUJBEIjl9+nRFRcXYsWNty71tYmJieDxeenq6Y1K3trZ+8cUXBQUFd+MqAAAeOr0vHIyIiLhw4UJOTo7RaIyIiBgwYMDly5dPnTrl5+c3c+ZMezc3NzeVSpWfn3/t2rWnn37acQSJRDJv3rzdu3d/+OGH48ePF4vFdXV1eXl57e3ty5Yts02vAwDAHXHpW5dz584dPnx4fn7+wYMHWZb19fWdNm2a7RuYjt1UKlVOTo59ubejsWPHDh48WKPRfPnlly0tLd7e3iNHjpwyZYpYLL5rlwIA8DBxKb6JKDIy0r4Q8HYkEsnbb799u6MBAQFd7soBAKDP8IuDAACchPgGAOAkxDcAACchvgEAOAnxDQDASYhvAABOQnwDAHAS4hsAgJMQ3wAAnIT4BgDgJMQ3AAAnIb4BADgJ8Q0AwEmIbwAATkJ8AwBwklN883g8lmX7qxQAAOgZy7L2J5Q5xbdcLtfr9f1REgAA9E6v18vlctu2U3yrVCqtVosbcACA+xDLslqtVqVS2XbdOjs7HQ9nZ2cbDAa1Wq1UKrs8yhIAAPoFy7J6vV6r1SoUivj4eFtj1/gmovLycp1OZzQarVbrPS8SAAC64vF4crlcpVKFh4fbG7uJbwAAuP9h4SAAACchvgEAOAnxDQDASYhvAABO6mZpIFaeAADcV7pdedI1vrHuGwDgfmNf933lypXu132Xl5efOnVq6dKlCG4AgPsNy7I7d+4cP3687R7cae5bp9Op1WpkNwDAfYhhGLVardPpbLtO8W00GpVKZX9UBQAAvVMqlUaj0bbtFN9WqxW33gAA9y2GYeyLSrBwEACAkxDfAACchPgGAOAkxDcAACchvgEAOAnxDQDASYhvAABOQnwDAHAS4hsAgJMQ3wAAnIT4BgDgJMQ3AAAnIb4BADip9/j+29/+tm7duuPHj3dpv379+quvvrpu3bqOjg4i0mq169at27lz560jvP/+++vWrTt//ny343d2dr7++usVFRWOjfv27duwYUNTU5NjY0dHx+bNm7dt22a1Wt97772tW7c6PmuCiOrr61977bXDhw/3elEAAFzn0t03n88vKSnp0lhWVsbj8bp0O3fuXEtLi2OjyWSqra3tYfCampqWlpbg4GDHxsTERIZh/vnPfzo2njhxora2du7cuTweb86cOZcvX7b/bLnNwYMHvby8pk+f7spFAQBwmkvxHRQUVFVVZTKZHBtLS0sDAgIcW7y9vQcNGlRWVubYWFJS0qVbF+fOnZPJZEKh0LFRKBQmJibqdLrLly/bWpqbm3NyciZOnDhkyBBbSWPHjj18+HBra6t9nG+//TY5OZnP57tyUQAAnOZSfItEoiFDhjjegDc2Nl68ePHRRx917Ga1WkeOHFlcXOzYWFpa2qVbF+fPn++2Q3R0dEBAwIEDB2wzJEeOHOHz+fZndBJRUlJSe3t7bm6u7dQHDx4cMWLE6NGjXbkiAACucym+Ozo6IiIiHHO5tLTU39//kUcecezW2dkZERFx6dKlhoYGW0tVVVVdXV0Pkcqy7KVLl7qNbzc3tzlz5hiNxm+++cZoNBYWFiYlJXl4eNg7eHl5xcfHf/311z/88MOJEyfq6+tTUlJcuRwAgAeAqytPoqKi6urqvv/+e9tuaWlpZGTkrd0UCoVEIiktLbXtlpSUKJVKLy+v2w1bWVlpe1W3R2Uy2YQJEw4fPrx///6goKCoqKguHSZOnCiVSvfu3Xvs2LHHH3/c19fXxcsBAOA6V+Pbx8dHoVDY5k9sOd5tfBNRZGSk7T69s7Pzdilvd/78+aCgoB4esJmQkEBEVVVVc+bM6aZ6d/c5c+ZcvHjR09Pz8ccfd/FaAAAeAHew7jsqKqq0tLSzs9P2aaREIrldt+rqapPJZDAYmpubw8LCehjzdhPfdkKhMDg4+JFHHvHz8+u2Q2BgoJeXV2hoKB6yDAAPlTuI74iIiObm5kuXLvV8T+3n5zdkyJCysrKSkpLQ0FDH2eouWlpaqqqqlErlnZUMAAB3FN8DBw589NFH8/Pzr169GhER0UPPqKio77777syZMz3PnOj1ek9Pz6FDh7peAwAA2NzZl+Zt8yfBwcEikaiHbpGRkd9///3169dHjhzZQ7fz588rlUo3N7c7qgEAAOhO43v06NE8Hq/ne2oiGjRoUGBg4OjRo3v+Bo0tvu+oAAAAsHFz/NmQTZs2bdy4sR+rAQCAntmDGr84CADASYhvAABOQnwDAHAS4hsAgJMQ3wAAnIT4BgDgJMQ3AAAnIb4BADgJ8Q0AwEmIbwAATkJ8AwBwEuIbAICTEN8AAJyE+AYA4CTENwAAJznFN4/HY1m2v0oBAICesSzL4/Fs207xLZfL9Xp9f5QEAAC90+v1crnctu0U3yqVSqvV4gYcAOA+xLKsVqtVqVS2XaeHpRFRdna2wWBQq9VKpZJhmP6oEAAAnLAsq9frtVqtQqGIj4+3NXaNbyIqLy/X6XRGo9Fqtd7zIgEAoCsejyeXy1UqVXh4uL2xm/gGAID7HxYOAgBwEuIbAICTEN8AAJyE+AYA4CSnpYE1NTX79u0zGAz9Vc0DT6FQzJ0719/fv78LAQDOc1p58tFHH4WGho4dO7YfC3qwFRUVnT179t/+7d/6uxAA4DynyRODwYDs/kWNHTsW/7gBgLsCc98AAJyE+AYA4CTENwAAJ7kW32zhBpWPj/9NgSMmL9qQedHyC9fmmjPvTvb/qTT/EbHJr+wqu96/NZk0/5uDGW4A+EW5fvctmP9nQ41NaeZLftnL//87ZffJL8sycW8W3SjNkPPmmKINS/5T059/W0xHt76dbbhP3hwAeED1afJEHDL/PxbHXtRoLhFV70gOXPLuR0tiI+Lf/Ibocs6bi45LnH8AAAbNSURBVCbHqmJjVbGTl76bU217gaXs01XxMZGRo0fEzl6764yFiMhiyNy4cHJMbGxMbOzctennLUREJs27iydHRkRGRkTaezZ+s3X5jNhIVWRkRGT88zsKG3sqTRAwY82yuJqvcspYImos3LI8PiYyUhUZOTF5Q4aBiMp+Pzlw0S7Tzf5lv58cuDjdlLE8cPabO15fvnDu5EhV/NqMwpx3li+cGx+rmrzqixu30Y3fbF2eGBsbExsbE7/8fU0jEbFl706NXPXxrg1LFyYnxkbGLdlabKHrOWtT3tRc3bNq6sKt5X15dwEAXNHXuW+WzETEI2IExGqONizLLs1eP86w9cXlOSGbs3X5+brs9ZLdy3+zy0Rk+df6JR+aV2SUlJwu2/74uQ3PbS1jqWzLkpcKxmzOyc8v0OxOMvzu1++UsVS2Y8PHgjXHS0tKSvN3PUk5WfkWMux5fbNp0e4SXUmJLvslP81BranX6sj2LKFTm1/c0rjwHyUlupLs30h3r3kz8zqNSV0QcjJ990XbVZQdzKqZ8eQMKUOtRTk18Vt37zuevVK468UXs6M2796Xnf2a4uCHu8pYorrMNc/soGW78wvy8w+v99+//KW9jcR4ENUc/Zdl8fbdBw5rtj/+3eYtmY0DZ7zz3kJ/3wVbvtz9YnhPNQIA/Bx9iu/Gc+nv7ToXPjs+gIhIQIqEOXFiIqrOySkKWfBMtJiISDxjUbzfyRzNdco/kmN+fOGsoUQkGPPS7tLDvxlDZTmZ38U8/VK0mIgEil8tj7uac/AMiQcPsnx7cNeRMtN1Qciv3klbGyegQYOkAkNOeuY3hkaSztqU9kaStIfSLBdzNu/QKBJnj2GIxr+hKd21bDgRkVQdF8EaDHVEwxcuji7ds7eMiOibPZnXExbOEBORx9C4hHECIpI+GuIvjps1RUxE4uEhfnWmq0QW7cGcgbNWJCuIiHzjFs9RaLJybPMzEUkLQhgiEoSEKKimpqEvbygAwB1z/Xk6lvTnFZnPExGRl/8I9eLtn7wYYns1M0gsJiKixsYGurlNRBI/MVvW0GgR1NUMkg0S3DihQMwQsQ01jRbN65Mj37vR10w0u5YUK9L2DPzjxx+/9MfnawZFL1z7+vr5I8XzP8ykj7buWpf80mVBRNLy9ZuWRYvJCatZP9Z/PRERefiOiJn/x12vRQuIqLFs99ub0wsMZkZAbOO5VnEcS0TS2alxG97aU/jvI8z7Mylp+wxbZR43KyQiDw/hzbfHw3Zl9abWyznLYzNvntEsCGmoISLyEA/0uPleehAAwL3ienwL5v/ZsD1F0FMXsXgQNTTWE/kSEVH91UZG6icWiH39r15tsBAJiIhtNFyyDAry9/cVx6/MT5vXZUBx9K/WR/9qPVlMmreeXrJy65gvfxMyMGT+2i3z1xLVFW59/unlvw8peSvO+SLi3iw4sGxo13IK316+4czi7Iy0kIFE1TuSY3bfOMcTi2f/59rdx+LomHjWjmhXLl4skXqELEv7cv0YpzfsnCuvBQD4JdzVdd9DZ8yKObfn74WNRMSacv6e3fB4QuxAin1ixqB/bd913kJkOffRksm//thAITMSFfn/u922wq+xeMfaF3eUWRozfxO//NNzFiISSENH+AuIWq9r3py98N1vGomIfENGBAhdL6ehsUEwdIRiIBFrytmReZa1WGzzHQPjFqcIDv5u7UHJ7IVRLg0lUM+eUZe544iJiIg1Zb6+fMOR20/BMySwNDTeH+sqAeBBdXcfRqxY9sH2mlfWxMe0EpF4zOLtm+dLiejx9Wm/2bAmdcw7zSQcnvDGtrVjGKJVaZub174Ut6ORiAaGzH/tnTEC8YhlizW/Wxz7oYUYEkij1769bMxAsXhFztr/mBx5nYgE0jGLt3S59b69uOfWxq1cGztRLPUPmf3vb6w/v+DNX69SpG+ZP1QQnTrL/+Otg56bH+LiWL6zNn9iWLNpVuRGC7EChXr5GxOkRLeZ6B45Iz5gyUtjYzUfat55osd/rwAA9JXTLw6+8sorv/3tb/uxmnunetfCGTmz/pW2uKfPQX8Rf/jDH9566617fVYAeOA8lF+aZ02Zv99qSFm28J5nNwDA3fLwxfe/NsSOVr/ZuHj7a3GY1wAA7rq7c99c8Pgb+d+90d9FAAD8XE533wqFoqioqL9KeRgUFRUpFIr+rgIAHgROH13iWZe/NDzrEgDuFqf4BgAArnj4ProEAHggIL4BADgJ8Q0AwEmIbwAATkJ8AwBwEuIbAICTEN8AAJyE+AYA4CTENwAAJyG+AQA4CfENAMBJiG8AAE5CfAMAcNL/ARqIA9U5D2UyAAAAAElFTkSuQmCC;" parent="1" vertex="1">
                    <mxGeometry x="80" y="703" width="143.9" height="79" as="geometry"/>
                </mxCell>
                <mxCell id="92" value="Actor" style="shape=umlActor;verticalLabelPosition=bottom;verticalAlign=top;html=1;outlineConnect=0;" parent="1" vertex="1">
                    <mxGeometry x="30" y="748" width="30" height="60" as="geometry"/>
                </mxCell>
                <mxCell id="98" value="" style="endArrow=classic;html=1;strokeColor=#FFFFFF;fontSize=14;" parent="1" edge="1">
                    <mxGeometry width="50" height="50" relative="1" as="geometry">
                        <mxPoint x="680.42" y="843" as="sourcePoint"/>
                        <mxPoint x="523.15" y="843" as="targetPoint"/>
                    </mxGeometry>
                </mxCell>
                <mxCell id="99" value="&lt;b&gt;acknoledged&lt;/b&gt;" style="text;html=1;align=center;verticalAlign=middle;resizable=0;points=[];autosize=1;strokeColor=none;fillColor=none;fontSize=14;" parent="1" vertex="1">
                    <mxGeometry x="524.05" y="808" width="110" height="30" as="geometry"/>
                </mxCell>
                <mxCell id="100" value="&lt;font color=&quot;#ff0000&quot;&gt;payment_method_id&lt;/font&gt;, PM" style="text;html=1;align=center;verticalAlign=middle;resizable=0;points=[];autosize=1;strokeColor=none;fillColor=none;fontSize=14;" parent="1" vertex="1">
                    <mxGeometry x="491.27000000000004" y="853" width="180" height="30" as="geometry"/>
                </mxCell>
                <mxCell id="102" value="" style="sketch=0;pointerEvents=1;shadow=0;dashed=0;html=1;strokeColor=none;labelPosition=center;verticalLabelPosition=bottom;verticalAlign=top;outlineConnect=0;align=center;shape=mxgraph.office.security.lock_protected;fillColor=#DA4026;fontSize=19;" parent="1" vertex="1">
                    <mxGeometry x="518.15" y="813" width="10" height="10" as="geometry"/>
                </mxCell>
                <mxCell id="103" value="" style="endArrow=classic;html=1;strokeColor=#FFFFFF;fontSize=14;" parent="1" edge="1">
                    <mxGeometry width="50" height="50" relative="1" as="geometry">
                        <mxPoint x="650.8500000000004" y="1565" as="sourcePoint"/>
                        <mxPoint x="529.95" y="1565" as="targetPoint"/>
                    </mxGeometry>
                </mxCell>
                <mxCell id="104" value="&lt;b&gt;acknoledged&lt;/b&gt;" style="text;html=1;align=center;verticalAlign=middle;resizable=0;points=[];autosize=1;strokeColor=none;fillColor=none;fontSize=14;" parent="1" vertex="1">
                    <mxGeometry x="530.85" y="1530" width="110" height="30" as="geometry"/>
                </mxCell>
                <mxCell id="105" value="&lt;font color=&quot;#ff0000&quot;&gt;payment_id&lt;/font&gt;, success" style="text;html=1;align=center;verticalAlign=middle;resizable=0;points=[];autosize=1;strokeColor=none;fillColor=none;fontSize=14;" parent="1" vertex="1">
                    <mxGeometry x="490.85" y="1575" width="150" height="30" as="geometry"/>
                </mxCell>
                <mxCell id="106" value="" style="strokeWidth=2;html=1;shape=mxgraph.flowchart.delay;whiteSpace=wrap;fontSize=19;rotation=-180;" parent="1" vertex="1">
                    <mxGeometry x="650.85" y="1530" width="100" height="60" as="geometry"/>
                </mxCell>
                <mxCell id="107" value="" style="sketch=0;pointerEvents=1;shadow=0;dashed=0;html=1;strokeColor=none;labelPosition=center;verticalLabelPosition=bottom;verticalAlign=top;outlineConnect=0;align=center;shape=mxgraph.office.security.lock_protected;fillColor=#DA4026;fontSize=19;" parent="1" vertex="1">
                    <mxGeometry x="524.95" y="1535" width="10" height="10" as="geometry"/>
                </mxCell>
                <mxCell id="108" value="&lt;b&gt;list&lt;/b&gt;()" style="text;html=1;align=center;verticalAlign=middle;resizable=0;points=[];autosize=1;strokeColor=none;fillColor=none;fontSize=14;" vertex="1" parent="1">
                    <mxGeometry x="547.4799999999999" y="960" width="50" height="30" as="geometry"/>
                </mxCell>
                <mxCell id="109" style="edgeStyle=orthogonalEdgeStyle;html=1;" edge="1" parent="1">
                    <mxGeometry relative="1" as="geometry">
                        <mxPoint x="690" y="1010" as="targetPoint"/>
                        <mxPoint x="487.48000000000013" y="990" as="sourcePoint"/>
                    </mxGeometry>
                </mxCell>
                <mxCell id="114" value="" style="sketch=0;pointerEvents=1;shadow=0;dashed=0;html=1;strokeColor=none;labelPosition=center;verticalLabelPosition=bottom;verticalAlign=top;outlineConnect=0;align=center;shape=mxgraph.office.security.lock_protected;fillColor=#DA4026;fontSize=19;" vertex="1" parent="1">
                    <mxGeometry x="687.73" y="960" width="10" height="10" as="geometry"/>
                </mxCell>
                <mxCell id="116" style="edgeStyle=none;html=1;fontSize=14;exitX=0;exitY=0.75;exitDx=0;exitDy=0;" edge="1" parent="1">
                    <mxGeometry relative="1" as="geometry">
                        <mxPoint x="595.5600000000001" y="1010" as="targetPoint"/>
                        <mxPoint x="685.5600000000001" y="1010" as="sourcePoint"/>
                    </mxGeometry>
                </mxCell>
                <mxCell id="118" value="&lt;span style=&quot;color: rgb(240, 240, 240); font-family: Helvetica; font-size: 14px; font-style: normal; font-variant-ligatures: normal; font-variant-caps: normal; font-weight: 400; letter-spacing: normal; orphans: 2; text-align: center; text-indent: 0px; text-transform: none; widows: 2; word-spacing: 0px; -webkit-text-stroke-width: 0px; background-color: rgb(42, 37, 47); text-decoration-thickness: initial; text-decoration-style: initial; text-decoration-color: initial; float: none; display: inline !important;&quot;&gt;list[PM]&lt;/span&gt;" style="text;whiteSpace=wrap;html=1;" vertex="1" parent="1">
                    <mxGeometry x="533.63" y="990" width="50" height="40" as="geometry"/>
                </mxCell>
                <mxCell id="119" value="&lt;b&gt;get&lt;/b&gt;(&lt;font color=&quot;#ff0000&quot;&gt;payment_method_id&lt;/font&gt;)" style="text;html=1;align=center;verticalAlign=middle;resizable=0;points=[];autosize=1;strokeColor=none;fillColor=none;fontSize=14;" vertex="1" parent="1">
                    <mxGeometry x="489.47999999999996" y="1050" width="180" height="30" as="geometry"/>
                </mxCell>
                <mxCell id="120" style="edgeStyle=orthogonalEdgeStyle;html=1;" edge="1" parent="1">
                    <mxGeometry relative="1" as="geometry">
                        <mxPoint x="694" y="1100" as="targetPoint"/>
                        <mxPoint x="494.4799999999999" y="1080" as="sourcePoint"/>
                    </mxGeometry>
                </mxCell>
                <mxCell id="121" value="" style="sketch=0;pointerEvents=1;shadow=0;dashed=0;html=1;strokeColor=none;labelPosition=center;verticalLabelPosition=bottom;verticalAlign=top;outlineConnect=0;align=center;shape=mxgraph.office.security.lock_protected;fillColor=#DA4026;fontSize=19;" vertex="1" parent="1">
                    <mxGeometry x="694.73" y="1050" width="10" height="10" as="geometry"/>
                </mxCell>
                <mxCell id="122" style="edgeStyle=none;html=1;fontSize=14;exitX=0;exitY=0.75;exitDx=0;exitDy=0;" edge="1" parent="1">
                    <mxGeometry relative="1" as="geometry">
                        <mxPoint x="602.5599999999998" y="1100" as="targetPoint"/>
                        <mxPoint x="692.5599999999998" y="1100" as="sourcePoint"/>
                    </mxGeometry>
                </mxCell>
                <mxCell id="123" value="&lt;span style=&quot;color: rgb(240, 240, 240); font-family: Helvetica; font-size: 14px; font-style: normal; font-variant-ligatures: normal; font-variant-caps: normal; font-weight: 400; letter-spacing: normal; orphans: 2; text-align: center; text-indent: 0px; text-transform: none; widows: 2; word-spacing: 0px; -webkit-text-stroke-width: 0px; background-color: rgb(42, 37, 47); text-decoration-thickness: initial; text-decoration-style: initial; text-decoration-color: initial; float: none; display: inline !important;&quot;&gt;PM&lt;/span&gt;" style="text;whiteSpace=wrap;html=1;" vertex="1" parent="1">
                    <mxGeometry x="561.81" y="1070" width="50" height="40" as="geometry"/>
                </mxCell>
                <mxCell id="124" value="" style="html=1;strokeWidth=2;shape=manualInput;whiteSpace=wrap;rounded=1;size=26;arcSize=11;" vertex="1" parent="1">
                    <mxGeometry x="237" y="758" width="60" height="40" as="geometry"/>
                </mxCell>
                <mxCell id="126" value="" style="group" vertex="1" connectable="0" parent="1">
                    <mxGeometry x="467.25999999999993" y="1160" width="239.09999999999997" height="30" as="geometry"/>
                </mxCell>
                <mxCell id="110" value="&lt;b&gt;delete&lt;/b&gt;(&lt;font color=&quot;#ff0000&quot;&gt;payment_method_id&lt;/font&gt;)" style="text;html=1;align=center;verticalAlign=middle;resizable=0;points=[];autosize=1;strokeColor=none;fillColor=none;fontSize=14;" vertex="1" parent="126">
                    <mxGeometry x="10" width="200" height="30" as="geometry"/>
                </mxCell>
                <mxCell id="111" style="edgeStyle=none;html=1;" edge="1" parent="126">
                    <mxGeometry relative="1" as="geometry">
                        <mxPoint x="224.99999999999994" y="30" as="targetPoint"/>
                        <mxPoint x="25.000000000000057" y="30" as="sourcePoint"/>
                    </mxGeometry>
                </mxCell>
                <mxCell id="115" value="" style="sketch=0;pointerEvents=1;shadow=0;dashed=0;html=1;strokeColor=none;labelPosition=center;verticalLabelPosition=bottom;verticalAlign=top;outlineConnect=0;align=center;shape=mxgraph.office.security.lock_protected;fillColor=#DA4026;fontSize=19;" vertex="1" parent="126">
                    <mxGeometry x="229.09999999999997" width="10" height="10" as="geometry"/>
                </mxCell>
                <mxCell id="127" value="" style="endArrow=none;dashed=1;html=1;dashPattern=1 3;strokeWidth=2;fontColor=#FF0000;" edge="1" parent="1">
                    <mxGeometry width="50" height="50" relative="1" as="geometry">
                        <mxPoint x="680" y="841" as="sourcePoint"/>
                        <mxPoint x="679.48" y="782" as="targetPoint"/>
                    </mxGeometry>
                </mxCell>
            </root>
        </mxGraphModel>
    </diagram>
</mxfile>
